<svg xmlns="http://www.w3.org/2000/svg" width="960" height="824" viewBox="0 0 960 824" role="img"><title>Open Diagram · from session to structure</title><defs><marker id="arrow-6" viewBox="0 0 10 10" refX="9" refY="5" markerWidth="7" markerHeight="7" orient="auto"><path d="M0,0 L10,5 L0,10 Z" fill="#a33e7d"/></marker><marker id="arrow-4" viewBox="0 0 10 10" refX="9" refY="5" markerWidth="7" markerHeight="7" orient="auto"><path d="M0,0 L10,5 L0,10 Z" fill="#b23e39"/></marker><marker id="arrow-2" viewBox="0 0 10 10" refX="9" refY="5" markerWidth="7" markerHeight="7" orient="auto"><path d="M0,0 L10,5 L0,10 Z" fill="#7950b0"/></marker><marker id="arrow-7" viewBox="0 0 10 10" refX="9" refY="5" markerWidth="7" markerHeight="7" orient="auto"><path d="M0,0 L10,5 L0,10 Z" fill="#087969"/></marker><marker id="arrow-3" viewBox="0 0 10 10" refX="9" refY="5" markerWidth="7" markerHeight="7" orient="auto"><path d="M0,0 L10,5 L0,10 Z" fill="#277641"/></marker><marker id="arrow-0" viewBox="0 0 10 10" refX="9" refY="5" markerWidth="7" markerHeight="7" orient="auto"><path d="M0,0 L10,5 L0,10 Z" fill="#00758d"/></marker></defs><rect width="100%" height="100%" fill="#ffffff"/><g font-family="DejaVu Sans Mono, monospace" font-size="16"><text x="28" y="52" fill="#172033" font-weight="bold" textLength="400" lengthAdjust="spacingAndGlyphs">Open Diagram · from session to structure</text><path d="M415,172 L415,184 L415,280 L415,292" fill="none" stroke="#a33e7d" stroke-width="2" stroke-linejoin="round" marker-end="url(#arrow-6)"/><text x="430" y="239.2" fill="#a33e7d" textLength="160" lengthAdjust="spacingAndGlyphs">bounded evidence</text><path d="M365,364 L365,376 L365,520 L365,532" fill="none" stroke="#b23e39" stroke-width="2" stroke-linejoin="round" marker-end="url(#arrow-4)"/><text x="220" y="455.20000000000005" fill="#b23e39" textLength="130" lengthAdjust="spacingAndGlyphs">changed input</text><path d="M325,532 L325,520 L325,472 L395,472 L395,376 L395,364" fill="none" stroke="#7950b0" stroke-width="2" stroke-linejoin="round" marker-end="url(#arrow-2)"/><text x="200" y="479.20000000000005" fill="#7950b0" textLength="110" lengthAdjust="spacingAndGlyphs">↺ validated</text><text x="200" y="503.20000000000005" fill="#7950b0" textLength="50" lengthAdjust="spacingAndGlyphs">views</text><path d="M435,364 L435,376 L435,688 L435,700" fill="none" stroke="#087969" stroke-width="2" stroke-linejoin="round" marker-end="url(#arrow-7)"/><text x="450" y="527.2" fill="#087969" textLength="70" lengthAdjust="spacingAndGlyphs">persist</text><path d="M465,364 L465,376 L465,448 L685,448 L685,520 L685,532" fill="none" stroke="#277641" stroke-width="2" stroke-linejoin="round" marker-end="url(#arrow-3)"/><text x="480" y="407.20000000000005" fill="#277641" textLength="130" lengthAdjust="spacingAndGlyphs">RPC snapshots</text><path d="M685,604 L685,616 L685,688 L685,700" fill="none" stroke="#00758d" stroke-width="2" stroke-linejoin="round" marker-end="url(#arrow-0)"/><text x="700" y="647.2" fill="#00758d" textLength="120" lengthAdjust="spacingAndGlyphs">active graph</text><rect x="270" y="100" width="270" height="72" rx="10" fill="#eef2f8" stroke="#64748b"/><text x="290" y="143.2" fill="#172033" font-weight="bold" textLength="230" lengthAdjust="spacingAndGlyphs">Public session evidence</text><rect x="320" y="292" width="180" height="72" rx="10" fill="#eef2f8" stroke="#64748b"/><text x="340" y="335.20000000000005" fill="#172033" font-weight="bold" textLength="140" lengthAdjust="spacingAndGlyphs">Diagram engine</text><rect x="130" y="532" width="280" height="72" rx="10" fill="#eef2f8" stroke="#64748b"/><text x="150" y="575.2" fill="#172033" font-weight="bold" textLength="240" lengthAdjust="spacingAndGlyphs">Configured diagram model</text><rect x="560" y="532" width="230" height="72" rx="10" fill="#eef2f8" stroke="#64748b"/><text x="580" y="575.2" fill="#172033" font-weight="bold" textLength="190" lengthAdjust="spacingAndGlyphs">Native OpenCode TUI</text><rect x="290" y="700" width="270" height="72" rx="10" fill="#eef2f8" stroke="#64748b"/><text x="310" y="743.2" fill="#172033" font-weight="bold" textLength="230" lengthAdjust="spacingAndGlyphs">Location-scoped storage</text><rect x="580" y="700" width="200" height="72" rx="10" fill="#eef2f8" stroke="#64748b"/><text x="600" y="743.2" fill="#172033" font-weight="bold" textLength="160" lengthAdjust="spacingAndGlyphs">PNG / SVG / Save</text></g></svg>